# xmcd CD database file
#
# Track frame offsets:
#	150
#	17573
#	33492
#	50292
#	65030
#	86913
#	103710
#	118263
#	128978
#	146231
#	156575
#	177084
#	197583
#	211210
#	230646
#
# Disc length: 3331 seconds
#
# Revision: 0
# Processed by: cddbd v1.5.2PL0 Copyright (c) Steve Scherf et al.
# Submitted via: CDex 1.75
#
DISCID=e00d010f
DTITLE=David Osborne - Best of David Osborne
DYEAR=2018
DGENRE=New Age
TTITLE0=Listen To Your Heart
TTITLE1=On The Wings Of Love
TTITLE2=When I Was Your Man
TTITLE3=To Where You Are
TTITLE4=Thinking Out Loud
TTITLE5=Strangers in the Night
TTITLE6=I Can't Make You Love Me
TTITLE7=Just the Way You Are
TTITLE8=You'll Never Know
TTITLE9=Against All Odds
TTITLE10=Ready to Take a Chance Again
TTITLE11=I Have Nothing (From the Body Guard)
TTITLE12=Goodbye Yellow Brick Road
TTITLE13=Memory from CATS
TTITLE14=Unchained Melody
EXTD=YEAR: 2018
EXTT0=
EXTT1=
EXTT2=
EXTT3=
EXTT4=
EXTT5=
EXTT6=
EXTT7=
EXTT8=
EXTT9=
EXTT10=
EXTT11=
EXTT12=
EXTT13=
EXTT14=
PLAYORDER=
